<svg width="35" height="40" viewBox="0 0 35 40" fill="none" xmlns="http://www.w3.org/2000/svg">
<g id="Group 1000000914">
<ellipse id="Background" cx="21.861" cy="26.861" rx="12.861" ry="12.861" fill="#B1E8F2"/>
<g id="Group 1000000883">
<path id="Vector" d="M8.17998 39.2076C8.07472 39.2075 7.97153 39.1781 7.88187 39.1225C7.7922 39.067 7.71954 38.9876 7.67195 38.8931C7.62436 38.7985 7.60369 38.6926 7.61223 38.587C7.62078 38.4813 7.6582 38.3801 7.72035 38.2946L10.7871 34.0754C10.8313 34.0145 10.887 33.9631 10.951 33.9239C11.0149 33.8847 11.0859 33.8587 11.1599 33.8471C11.2339 33.8356 11.3094 33.8388 11.3822 33.8567C11.4549 33.8745 11.5234 33.9066 11.5838 33.9512C11.6443 33.9957 11.6954 34.0517 11.7343 34.1161C11.7732 34.1805 11.7991 34.252 11.8105 34.3265C11.822 34.401 11.8188 34.477 11.801 34.5503C11.7833 34.6235 11.7514 34.6925 11.7072 34.7533L8.64045 38.9726C8.58751 39.0455 8.5182 39.1048 8.43818 39.1456C8.35816 39.1864 8.26969 39.2077 8.17998 39.2076ZM23.8213 39.2076C23.7316 39.2077 23.6431 39.1865 23.5631 39.1456C23.4831 39.1048 23.4138 39.0455 23.3609 38.9726L20.2941 34.7533C20.2499 34.6925 20.218 34.6235 20.2003 34.5503C20.1825 34.477 20.1793 34.401 20.1907 34.3265C20.2139 34.1761 20.2954 34.0411 20.4174 33.9512C20.5394 33.8612 20.6919 33.8238 20.8413 33.8471C20.9907 33.8704 21.1248 33.9524 21.2141 34.0753L24.2809 38.2945C24.3431 38.3801 24.3805 38.4813 24.3891 38.5869C24.3976 38.6925 24.377 38.7985 24.3294 38.893C24.2818 38.9876 24.2091 39.067 24.1195 39.1225C24.0298 39.178 23.9265 39.2075 23.8213 39.2076ZM18.0529 1.17342H13.9484C13.7972 1.17342 13.6522 1.11295 13.5453 1.00532C13.4383 0.897678 13.3783 0.75169 13.3783 0.599468C13.3783 0.447245 13.4383 0.301258 13.5453 0.19362C13.6522 0.0859828 13.7972 0.0255127 13.9484 0.0255127L18.0529 0.0255127C18.2041 0.0255127 18.3491 0.0859828 18.456 0.19362C18.5629 0.301258 18.623 0.447245 18.623 0.599468C18.623 0.75169 18.5629 0.897678 18.456 1.00532C18.3491 1.11295 18.2041 1.17342 18.0529 1.17342Z" fill="#676E87"/>
<path id="Vector_2" d="M15.9998 5.61201C15.8486 5.61201 15.7036 5.55154 15.5967 5.4439C15.4897 5.33626 15.4297 5.19028 15.4297 5.03805V0.599468C15.4297 0.447245 15.4897 0.301258 15.5967 0.19362C15.7036 0.0859828 15.8486 0.0255127 15.9998 0.0255127C16.151 0.0255127 16.296 0.0859828 16.4029 0.19362C16.5098 0.301258 16.5698 0.447245 16.5698 0.599468V5.03805C16.5698 5.19028 16.5098 5.33626 16.4029 5.4439C16.296 5.55154 16.151 5.61201 15.9998 5.61201ZM30.3755 6.51794C30.2588 6.51801 30.145 6.48207 30.0493 6.41496C29.9536 6.34785 29.8807 6.2528 29.8403 6.14264C29.7999 6.03248 29.7941 5.9125 29.8236 5.7989C29.853 5.68529 29.9164 5.58352 30.0052 5.50732L31.0597 4.60139C31.1167 4.55247 31.1826 4.51532 31.2539 4.49206C31.3251 4.46881 31.4001 4.45991 31.4748 4.46586C31.5494 4.47182 31.6221 4.49251 31.6888 4.52677C31.7555 4.56103 31.8148 4.60817 31.8634 4.66552C31.912 4.72286 31.9489 4.78928 31.972 4.86098C31.9951 4.93268 32.004 5.00826 31.998 5.0834C31.9921 5.15854 31.9716 5.23177 31.9375 5.29892C31.9035 5.36606 31.8567 5.4258 31.7997 5.47472L30.7452 6.38057C30.6422 6.46934 30.511 6.51807 30.3754 6.51794H30.3755Z" fill="#676E87"/>
<path id="Vector_3" d="M26.2605 14.2979C29.115 14.2979 31.4291 11.968 31.4291 9.094C31.4291 6.21998 29.115 3.89014 26.2605 3.89014C23.4059 3.89014 21.0918 6.21998 21.0918 9.094C21.0918 11.968 23.4059 14.2979 26.2605 14.2979Z" fill="#379939"/>
<path id="Vector_4" d="M26.2622 3.89014C25.8786 3.89037 25.4962 3.93349 25.1221 4.0187C26.2659 4.279 27.2878 4.9232 28.0199 5.84549C28.752 6.76779 29.1508 7.91334 29.1508 9.094C29.1508 10.2746 28.752 11.4202 28.0199 12.3425C27.2878 13.2648 26.2659 13.909 25.1221 14.1693C25.8313 14.3308 26.5664 14.3399 27.2794 14.1958C27.9923 14.0518 28.6671 13.7579 29.2595 13.3334C29.8519 12.9089 30.3487 12.3633 30.7174 11.7323C31.0861 11.1012 31.3184 10.399 31.3991 9.67137C31.4798 8.94378 31.4071 8.20723 31.1858 7.50986C30.9644 6.81248 30.5994 6.16998 30.1146 5.62434C29.6298 5.0787 29.036 4.6422 28.3722 4.34337C27.7084 4.04454 26.9894 3.89009 26.2622 3.89014Z" fill="#338E35"/>
<path id="Vector_5" d="M1.62443 6.51798C1.48886 6.5181 1.35772 6.46937 1.25472 6.38062L0.200089 5.47476C0.0850612 5.37596 0.0137286 5.2352 0.00178329 5.08344C-0.0101621 4.93169 0.0382583 4.78137 0.136392 4.66556C0.234527 4.54975 0.374336 4.47793 0.525064 4.46591C0.675792 4.45388 0.825092 4.50263 0.940119 4.60143L1.99475 5.50736C2.08348 5.58357 2.14686 5.68534 2.17634 5.79894C2.20582 5.91255 2.19999 6.03252 2.15962 6.14269C2.11925 6.25285 2.0463 6.34789 1.9506 6.415C1.8549 6.48211 1.74106 6.51806 1.62443 6.51798Z" fill="#676E87"/>
<path id="Vector_6" d="M5.73897 14.2979C8.59354 14.2979 10.9076 11.968 10.9076 9.094C10.9076 6.21998 8.59354 3.89014 5.73897 3.89014C2.8844 3.89014 0.570312 6.21998 0.570312 9.094C0.570312 11.968 2.8844 14.2979 5.73897 14.2979Z" fill="#379939"/>
<path id="Vector_7" d="M5.73878 3.89014C5.35517 3.89037 4.97278 3.93349 4.59863 4.0187C5.74245 4.279 6.76433 4.9232 7.49644 5.84549C8.22855 6.76779 8.62736 7.91334 8.62736 9.094C8.62736 10.2746 8.22855 11.4202 7.49644 12.3425C6.76433 13.2648 5.74245 13.909 4.59863 14.1693C5.30787 14.3308 6.04299 14.3399 6.75594 14.1958C7.46889 14.0518 8.14363 13.7579 8.73606 13.3334C9.3285 12.9089 9.82529 12.3633 10.194 11.7323C10.5627 11.1012 10.795 10.399 10.8757 9.67137C10.9564 8.94378 10.8837 8.20723 10.6623 7.50986C10.441 6.81248 10.076 6.16998 9.59114 5.62434C9.10631 5.0787 8.51259 4.6422 7.84876 4.34337C7.18493 4.04454 6.46594 3.89009 5.73878 3.89014Z" fill="#338E35"/>
<path id="Vector_8" d="M15.9993 35.1899C24.2692 35.1899 30.9732 28.4402 30.9732 20.114C30.9732 11.7878 24.2692 5.03809 15.9993 5.03809C7.72944 5.03809 1.02539 11.7878 1.02539 20.114C1.02539 28.4402 7.72944 35.1899 15.9993 35.1899Z" fill="#3CA73E"/>
<path id="Vector_9" d="M30.9744 20.114C30.9744 20.489 30.961 20.8604 30.9341 21.2282C30.6576 25.0245 28.9639 28.5746 26.1934 31.1648C23.4229 33.7549 19.7812 35.193 16.0005 35.1899C15.6166 35.1899 15.2366 35.1756 14.8604 35.147C18.4007 34.8756 21.73 33.3461 24.2538 30.8317C26.7777 28.3173 28.3318 24.9817 28.6386 21.4203C28.6751 20.9894 28.6936 20.554 28.6941 20.114C28.6941 12.1743 22.5974 5.66791 14.8604 5.08094C15.2366 5.05263 15.6166 5.03834 16.0005 5.03809C24.2704 5.03809 30.9744 11.7878 30.9744 20.114Z" fill="#2F8431"/>
<path id="Vector_10" d="M16.0003 32.894C23.0107 32.894 28.6939 27.1722 28.6939 20.1139C28.6939 13.0557 23.0107 7.33386 16.0003 7.33386C8.98977 7.33386 3.30664 13.0557 3.30664 20.1139C3.30664 27.1722 8.98977 32.894 16.0003 32.894Z" fill="white"/>
<path id="Vector_11" d="M28.6939 20.1139C28.6941 20.551 28.6721 20.9878 28.6277 21.4225C28.1557 26.0769 25.1913 30.0005 21.1043 31.815C19.4961 32.5283 17.7576 32.8958 16.0003 32.894C9.00129 32.894 3.30664 27.1606 3.30664 20.1139C3.30664 13.0673 9.00129 7.33386 16.0003 7.33386C22.9992 7.33386 28.6939 13.0673 28.6939 20.1139Z" fill="white"/>
<path id="Vector_12" d="M16.0005 7.33386C15.6162 7.33386 15.2361 7.35215 14.8604 7.38598C21.3274 7.96835 26.4138 13.4539 26.4138 20.1139C26.4138 26.774 21.3274 32.2594 14.8604 32.8419C15.2361 32.8757 15.6162 32.894 16.0005 32.894C22.9998 32.894 28.6941 27.1609 28.6941 20.1139C28.6941 13.067 22.9998 7.33386 16.0005 7.33386Z" fill="#F2F2F2"/>
<path id="Vector_13" d="M20.3227 20.5349H15.9998C15.9156 20.5349 15.8324 20.5161 15.7563 20.4799C15.6801 20.4437 15.6129 20.3909 15.5594 20.3255L10.9988 14.739C10.9513 14.6807 10.9156 14.6137 10.8938 14.5415C10.872 14.4694 10.8646 14.3937 10.8718 14.3187C10.8791 14.2437 10.901 14.1708 10.9362 14.1043C10.9715 14.0378 11.0194 13.979 11.0772 13.9311C11.194 13.8344 11.3442 13.7885 11.4947 13.8033C11.5692 13.8106 11.6415 13.8326 11.7076 13.8681C11.7736 13.9036 11.8321 13.9518 11.8796 14.01L16.2692 19.387H20.3227C20.4739 19.387 20.6189 19.4475 20.7258 19.5551C20.8327 19.6628 20.8928 19.8087 20.8928 19.961C20.8928 20.1132 20.8327 20.2592 20.7258 20.3668C20.6189 20.4744 20.4739 20.5349 20.3227 20.5349Z" fill="#676E87"/>
<path id="Vector_14" d="M30.9341 21.2281C30.7273 24.0325 29.746 26.723 28.101 28.9957C26.456 31.2684 24.2127 33.0329 21.6244 34.09C21.5074 33.7664 21.4079 33.4366 21.3264 33.1021C21.2236 32.6786 21.1494 32.2485 21.1045 31.8149C25.1915 30.0004 28.1559 26.0769 28.6279 21.4225L28.6386 21.4202C29.2768 21.2877 29.9267 21.221 30.5783 21.2212C30.6977 21.2212 30.8163 21.2235 30.9341 21.2281Z" fill="#2F8431"/>
<path id="Vector_15" d="M28.6279 21.4226C28.1559 26.077 25.1915 30.0006 21.1045 31.815C20.8591 29.4526 21.4925 27.0824 22.8821 25.1629C24.2718 23.2433 26.319 21.9107 28.6279 21.4226Z" fill="#F2F2F2"/>
<path id="Vector_16" d="M16 11.8872C15.8488 11.8872 15.7038 11.8267 15.5969 11.7191C15.49 11.6114 15.4299 11.4654 15.4299 11.3132V9.62962C15.4299 9.4774 15.49 9.33141 15.5969 9.22377C15.7038 9.11613 15.8488 9.05566 16 9.05566C16.1512 9.05566 16.2962 9.11613 16.4031 9.22377C16.51 9.33141 16.5701 9.4774 16.5701 9.62962V11.3132C16.5701 11.4654 16.51 11.6114 16.4031 11.7191C16.2962 11.8267 16.1512 11.8872 16 11.8872ZM16 31.1721C15.8488 31.1721 15.7038 31.1116 15.5969 31.004C15.49 30.8963 15.4299 30.7503 15.4299 30.5981V28.9145C15.4299 28.7623 15.49 28.6163 15.5969 28.5087C15.7038 28.401 15.8488 28.3406 16 28.3406C16.1512 28.3406 16.2962 28.401 16.4031 28.5087C16.51 28.6163 16.5701 28.7623 16.5701 28.9145V30.5981C16.5701 30.7503 16.51 30.8963 16.4031 31.004C16.2962 31.1116 16.1512 31.1721 16 31.1721ZM7.25889 20.6878H5.58667C5.43548 20.6878 5.29048 20.6274 5.18357 20.5197C5.07666 20.4121 5.0166 20.2661 5.0166 20.1139C5.0166 19.9616 5.07666 19.8157 5.18357 19.708C5.29048 19.6004 5.43548 19.5399 5.58667 19.5399H7.25889C7.41008 19.5399 7.55508 19.6004 7.66199 19.708C7.7689 19.8157 7.82896 19.9616 7.82896 20.1139C7.82896 20.2661 7.7689 20.4121 7.66199 20.5197C7.55508 20.6274 7.41008 20.6878 7.25889 20.6878Z" fill="#676E87"/>
<path id="Vector_17" d="M16.0005 21.1088C16.6302 21.1088 17.1406 20.5949 17.1406 19.9609C17.1406 19.3269 16.6302 18.813 16.0005 18.813C15.3708 18.813 14.8604 19.3269 14.8604 19.9609C14.8604 20.5949 15.3708 21.1088 16.0005 21.1088Z" fill="#2F8431"/>
</g>
</g>
</svg>
