<svg width="43" height="35" viewBox="0 0 43 35" fill="none" xmlns="http://www.w3.org/2000/svg">
<g id="Group 1000000918">
<ellipse id="Background" cx="30.487" cy="22.3387" rx="12.5124" ry="12.5124" fill="#B1E8F2"/>
<g id="Group 1000000897">
<g id="Group">
<path id="Vector" d="M7.46862 1.5H24.5398C27.8365 1.5 30.5084 4.17174 30.5084 7.46667V24.5333C30.5084 27.8283 27.8365 30.5 24.5398 30.5H7.46862C4.17187 30.5 1.5 27.8283 1.5 24.5333V7.46667C1.5 4.17174 4.17187 1.5 7.46862 1.5Z" fill="#F5F5F5" stroke="#3BA73D" stroke-width="3"/>
<path id="Vector_2" fill-rule="evenodd" clip-rule="evenodd" d="M12.7168 19.4515L15.4874 16.6816L17.3735 18.5672C18.5222 19.7156 19.485 20.039 21.3786 18.523C21.8049 18.0968 22.5386 17.5519 23.3175 17.9045L26.9747 20.2823C28.0243 21.1186 28.0844 21.6065 27.7499 22.3357C25.6738 26.8607 19.9905 26.5104 12.7168 19.4515ZM12.7168 19.4515C5.65609 12.1797 5.30568 6.49788 9.83183 4.42233C10.5613 4.08793 11.0493 4.14799 11.8858 5.19733L14.2642 8.85353C14.6169 9.63229 14.0718 10.3658 13.6456 10.7919C12.1292 12.6851 12.4526 13.6477 13.6013 14.796L15.4874 16.6816L12.7168 19.4515Z" fill="url(#paint0_linear_21_79)"/>
</g>
</g>
</g>
<defs>
<linearGradient id="paint0_linear_21_79" x1="-900.524" y1="-893.549" x2="-226.693" y2="-1567.56" gradientUnits="userSpaceOnUse">
<stop stop-color="#3CA73E"/>
<stop offset="1" stop-color="#00DD35"/>
</linearGradient>
</defs>
</svg>
