<svg width="43" height="38" viewBox="0 0 43 38" fill="none" xmlns="http://www.w3.org/2000/svg">
<g id="raphael:alarm" filter="url(#filter0_d_21_791)">
<path id="Vector" d="M15.6458 21.3434C15.5533 21.3966 15.4721 21.4676 15.4071 21.5522C15.342 21.6368 15.2943 21.7335 15.2666 21.8366C15.239 21.9397 15.232 22.0473 15.2461 22.1531C15.2601 22.2589 15.2949 22.3609 15.3485 22.4533C15.5719 22.8433 16.0716 22.9757 16.4575 22.7515C16.6352 22.6392 16.7626 22.4626 16.8129 22.2585C16.8632 22.0544 16.8326 21.8388 16.7274 21.6569C16.6222 21.4749 16.4507 21.3407 16.2488 21.2824C16.0468 21.2241 15.8302 21.2463 15.6442 21.3442L15.6458 21.3434ZM16.4583 14.9442C16.366 14.8908 16.264 14.8561 16.1583 14.8421C16.0525 14.8281 15.945 14.835 15.842 14.8626C15.7389 14.8901 15.6423 14.9377 15.5576 15.0026C15.4729 15.0675 15.4019 15.1484 15.3485 15.2407C15.2951 15.3331 15.2604 15.435 15.2464 15.5408C15.2324 15.6465 15.2393 15.754 15.2669 15.8571C15.2944 15.9601 15.342 16.0568 15.4069 16.1415C15.4718 16.2261 15.5527 16.2972 15.645 16.3506C15.7374 16.404 15.8393 16.4386 15.9451 16.4525C16.0508 16.4665 16.1582 16.4595 16.2613 16.4319C16.3643 16.4043 16.4609 16.3567 16.5455 16.2918C16.6301 16.2269 16.7011 16.146 16.7545 16.0536C16.8078 15.9613 16.8425 15.8593 16.8564 15.7536C16.8704 15.6479 16.8634 15.5404 16.8358 15.4374C16.8082 15.3344 16.7606 15.2378 16.6957 15.1532C16.6308 15.0685 16.5499 14.9975 16.4575 14.9442H16.4583ZM16.0074 18.8466C16.0074 18.6311 15.9218 18.4245 15.7694 18.2721C15.6171 18.1197 15.4104 18.0341 15.1949 18.0341C14.9794 18.0341 14.7728 18.1197 14.6204 18.2721C14.468 18.4245 14.3824 18.6311 14.3824 18.8466C14.3824 19.0621 14.468 19.2688 14.6204 19.4211C14.7728 19.5735 14.9794 19.6591 15.1949 19.6591C15.4104 19.6591 15.6171 19.5735 15.7694 19.4211C15.9218 19.2688 16.0074 19.0621 16.0074 18.8466ZM22.2531 8.21423V7.46185H23.0656C23.1733 7.46185 23.2767 7.41905 23.3529 7.34287C23.429 7.26668 23.4718 7.16335 23.4718 7.0556V6.64935C23.4718 6.42673 23.289 6.2431 23.0656 6.2431H20.1203C19.8968 6.2431 19.714 6.42673 19.714 6.64935V7.0556C19.714 7.16335 19.7568 7.26668 19.833 7.34287C19.9092 7.41905 20.0125 7.46185 20.1203 7.46185H20.9328V8.21504C15.3525 8.55954 10.9309 13.1794 10.9285 18.8466C10.9301 24.7372 15.7035 29.5099 21.5933 29.5123C27.484 29.509 32.2566 24.7348 32.2574 18.8458C32.2574 13.1786 27.8342 8.55792 22.2531 8.21423ZM21.5933 27.0724C19.4125 27.0691 17.3219 26.2014 15.7798 24.6593C14.2378 23.1172 13.37 21.0266 13.3668 18.8458C13.37 16.665 14.2378 14.5744 15.7798 13.0323C17.3219 11.4902 19.4125 10.6225 21.5933 10.6192C23.7741 10.6225 25.8646 11.4902 27.4066 13.0323C28.9485 14.5744 29.8161 16.665 29.8191 18.8458C29.8163 21.0265 28.9488 23.1172 27.4067 24.6592C25.8647 26.2012 23.7741 27.0696 21.5933 27.0724ZM18.8 23.6842C18.6138 23.5852 18.3965 23.5623 18.1937 23.6204C17.991 23.6785 17.8188 23.8131 17.7134 23.9957C17.608 24.1784 17.5777 24.3948 17.6288 24.5994C17.68 24.804 17.8085 24.9807 17.9875 25.0923C18.174 25.1983 18.3949 25.2263 18.6019 25.1701C18.809 25.1139 18.9854 24.978 19.0927 24.7922C19.2 24.6064 19.2294 24.3857 19.1746 24.1783C19.1197 23.9709 18.9851 23.7927 18.8 23.6842ZM18.8 14.0074C18.8971 13.9566 18.9829 13.8867 19.0523 13.8018C19.1216 13.717 19.1731 13.619 19.2037 13.5138C19.2342 13.4085 19.2431 13.2982 19.2299 13.1894C19.2167 13.0807 19.1816 12.9757 19.1268 12.8808C19.072 12.7859 18.9985 12.7031 18.9108 12.6374C18.8232 12.5716 18.7231 12.5243 18.6167 12.4982C18.5102 12.4722 18.3996 12.4679 18.2915 12.4857C18.1834 12.5035 18.0799 12.5429 17.9875 12.6017C17.8078 12.7129 17.6785 12.8896 17.627 13.0945C17.5755 13.2993 17.6057 13.5162 17.7114 13.6991C17.8171 13.882 17.9898 14.0166 18.193 14.0743C18.3963 14.132 18.6139 14.1075 18.8 14.0074ZM27.5425 16.3506C27.6816 16.2702 27.7938 16.1503 27.8648 16.0061C27.9358 15.8619 27.9624 15.7 27.9414 15.5406C27.9203 15.3813 27.8524 15.2318 27.7464 15.111C27.6404 14.9903 27.5009 14.9037 27.3456 14.8622C27.1904 14.8207 27.0263 14.8262 26.8741 14.878C26.722 14.9297 26.5886 15.0255 26.4909 15.1531C26.3931 15.2806 26.3354 15.4343 26.3251 15.5947C26.3147 15.7551 26.3521 15.9149 26.4326 16.054C26.6568 16.4416 27.1541 16.574 27.5425 16.3506ZM21.595 24.435C21.4853 24.43 21.3758 24.4472 21.273 24.4857C21.1702 24.5242 21.0763 24.5831 20.9969 24.6588C20.9175 24.7346 20.8543 24.8257 20.811 24.9266C20.7678 25.0275 20.7454 25.1361 20.7453 25.2458C20.7452 25.3556 20.7674 25.4642 20.8104 25.5652C20.8534 25.6662 20.9165 25.7574 20.9957 25.8333C21.075 25.9092 21.1688 25.9683 21.2715 26.007C21.3742 26.0457 21.4837 26.0631 21.5933 26.0584C21.8023 26.0492 21.9998 25.9598 22.1445 25.8088C22.2892 25.6577 22.3701 25.4566 22.3703 25.2474C22.3705 25.0382 22.2901 24.837 22.1456 24.6857C22.0012 24.5343 21.8039 24.4445 21.595 24.435ZM25.1992 12.6009C25.1065 12.5416 25.0027 12.5017 24.8941 12.4836C24.7855 12.4656 24.6743 12.4697 24.5674 12.4959C24.4605 12.5221 24.36 12.5697 24.272 12.6359C24.184 12.702 24.1103 12.7854 24.0555 12.8808C24.0007 12.9763 23.9658 13.0819 23.953 13.1912C23.9401 13.3006 23.9497 13.4114 23.9809 13.5169C24.0122 13.6225 24.0646 13.7206 24.1349 13.8053C24.2052 13.89 24.292 13.9596 24.39 14.0098C24.5756 14.1019 24.7893 14.1197 24.9876 14.0595C25.1858 13.9994 25.3537 13.8659 25.4568 13.6862C25.56 13.5065 25.5907 13.2943 25.5426 13.0927C25.4946 12.8912 25.3715 12.7156 25.1984 12.6017L25.1992 12.6009ZM27.9942 18.0341C27.7787 18.0341 27.5721 18.1197 27.4197 18.2721C27.2673 18.4245 27.1817 18.6311 27.1817 18.8466C27.1817 19.0621 27.2673 19.2688 27.4197 19.4211C27.5721 19.5735 27.7787 19.6591 27.9942 19.6591C28.2097 19.6591 28.4164 19.5735 28.5687 19.4211C28.7211 19.2688 28.8067 19.0621 28.8067 18.8466C28.8067 18.6311 28.7211 18.4245 28.5687 18.2721C28.4164 18.1197 28.2097 18.0341 27.9942 18.0341ZM27.5433 21.3434C27.3565 21.2362 27.1349 21.2072 26.9268 21.2628C26.7187 21.3184 26.5411 21.4539 26.4326 21.64C26.3521 21.779 26.3146 21.9388 26.3249 22.0992C26.3352 22.2595 26.3928 22.4132 26.4904 22.5408C26.5881 22.6684 26.7213 22.7642 26.8734 22.8161C27.0255 22.868 27.1895 22.8736 27.3448 22.8323C27.5001 22.7909 27.6396 22.7045 27.7457 22.5838C27.8519 22.4632 27.9198 22.3138 27.9411 22.1545C27.9623 21.9953 27.9359 21.8333 27.8651 21.6891C27.7943 21.5448 27.6823 21.424 27.5433 21.3434ZM21.5933 11.6357C21.1465 11.6357 20.7808 11.9997 20.7808 12.4482L20.403 18.4144L17.9623 20.0069C17.7846 20.1191 17.6572 20.2958 17.6069 20.4998C17.5566 20.7039 17.5872 20.9195 17.6924 21.1015C17.7976 21.2834 17.9691 21.4176 18.171 21.4759C18.373 21.5342 18.5896 21.512 18.7756 21.4141L21.4617 20.0524C21.5064 20.0572 21.5511 20.0662 21.5966 20.0662C21.9198 20.0662 22.2298 19.9378 22.4584 19.7092C22.6869 19.4806 22.8153 19.1706 22.8153 18.8474L22.4091 12.4482C22.4091 11.9989 22.0435 11.6357 21.5966 11.6357H21.5933ZM24.3883 23.685C24.2016 23.7927 24.0653 23.9701 24.0094 24.1782C23.9535 24.3864 23.9825 24.6082 24.0902 24.7949C24.1978 24.9816 24.3752 25.118 24.5833 25.1739C24.7915 25.2298 25.0133 25.2007 25.2 25.0931C25.3777 24.9809 25.5051 24.8042 25.5554 24.6001C25.6057 24.3961 25.5751 24.1805 25.4699 23.9985C25.3647 23.8165 25.1932 23.6823 24.9913 23.624C24.7893 23.5658 24.5727 23.5879 24.3867 23.6859L24.3883 23.685ZM18.0963 7.9201C17.4171 7.0751 16.3877 6.52423 15.2201 6.52423C14.7333 6.52412 14.2512 6.61992 13.8014 6.80614C13.3516 6.99237 12.9429 7.26538 12.5986 7.60959C12.2543 7.95379 11.9812 8.36244 11.7949 8.8122C11.6086 9.26196 11.5127 9.74402 11.5127 10.2309C11.5127 11.0084 11.754 11.7283 12.1627 12.3239C13.6033 10.2442 15.6885 8.69662 18.0963 7.9201ZM31.0232 12.3239C31.4311 11.7291 31.6732 11.0092 31.6732 10.2317C31.673 9.24853 31.2823 8.30574 30.587 7.61064C29.8918 6.91553 28.9489 6.52504 27.9658 6.52504C26.7974 6.52504 25.7688 7.07592 25.0895 7.9201C27.497 8.69689 29.5819 10.2444 31.0224 12.3239H31.0232Z" fill="white"/>
</g>
<defs>
<filter id="filter0_d_21_791" x="-1" y="-1" width="46" height="46" filterUnits="userSpaceOnUse" color-interpolation-filters="sRGB">
<feFlood flood-opacity="0" result="BackgroundImageFix"/>
<feColorMatrix in="SourceAlpha" type="matrix" values="0 0 0 0 0 0 0 0 0 0 0 0 0 0 0 0 0 0 127 0" result="hardAlpha"/>
<feOffset dy="4"/>
<feGaussianBlur stdDeviation="5"/>
<feComposite in2="hardAlpha" operator="out"/>
<feColorMatrix type="matrix" values="0 0 0 0 0 0 0 0 0 0 0 0 0 0 0 0 0 0 0.25 0"/>
<feBlend mode="normal" in2="BackgroundImageFix" result="effect1_dropShadow_21_791"/>
<feBlend mode="normal" in="SourceGraphic" in2="effect1_dropShadow_21_791" result="shape"/>
</filter>
</defs>
</svg>
