<svg width="19" height="18" viewBox="0 0 19 18" fill="none" xmlns="http://www.w3.org/2000/svg">
<g id="date (2)">
<path id="Vector" d="M15.7666 2.25H15.2041V1.6875C15.2041 1.35 14.9791 1.125 14.6416 1.125C14.3041 1.125 14.0791 1.35 14.0791 1.6875V2.25H11.8291V1.6875C11.8291 1.35 11.6041 1.125 11.2666 1.125C10.9291 1.125 10.7041 1.35 10.7041 1.6875V2.25H8.4541V1.6875C8.4541 1.35 8.2291 1.125 7.8916 1.125C7.5541 1.125 7.3291 1.35 7.3291 1.6875V2.25H5.0791V1.6875C5.0791 1.35 4.8541 1.125 4.5166 1.125C4.1791 1.125 3.9541 1.35 3.9541 1.6875V2.25H3.3916C2.43535 2.25 1.7041 2.98125 1.7041 3.9375V5.625H17.4541V3.9375C17.4541 2.98125 16.7229 2.25 15.7666 2.25ZM12.9541 4.5H6.2041C5.8666 4.5 5.6416 4.275 5.6416 3.9375C5.6416 3.6 5.8666 3.375 6.2041 3.375H12.9541C13.2916 3.375 13.5166 3.6 13.5166 3.9375C13.5166 4.275 13.2916 4.5 12.9541 4.5ZM12.3916 9.5625H11.8291C11.4916 9.5625 11.2666 9.7875 11.2666 10.125V13.5C11.2666 13.8375 11.4916 14.0625 11.8291 14.0625H12.3916C12.7291 14.0625 12.9541 13.8375 12.9541 13.5V10.125C12.9541 9.7875 12.7291 9.5625 12.3916 9.5625Z" fill="#BBBEC7"/>
<path id="Vector_2" d="M1.7041 6.75V15.1875C1.7041 16.1438 2.43535 16.875 3.3916 16.875H15.7666C16.7229 16.875 17.4541 16.1438 17.4541 15.1875V6.75H1.7041ZM9.0166 10.6875C9.0166 11.1375 8.84785 11.5312 8.5666 11.8125C8.84785 12.0938 9.0166 12.4875 9.0166 12.9375V13.5C9.0166 14.4563 8.28535 15.1875 7.3291 15.1875H6.7666C5.81035 15.1875 5.0791 14.4563 5.0791 13.5C5.0791 13.1625 5.3041 12.9375 5.6416 12.9375C5.9791 12.9375 6.2041 13.1625 6.2041 13.5C6.2041 13.8375 6.4291 14.0625 6.7666 14.0625H7.3291C7.6666 14.0625 7.8916 13.8375 7.8916 13.5V12.9375C7.8916 12.6 7.6666 12.375 7.3291 12.375C7.2166 12.375 7.1041 12.3187 7.04785 12.2625C6.9916 12.2625 6.9916 12.2063 6.93535 12.2063C6.93535 12.2063 6.8791 12.15 6.8791 12.0938C6.82285 12.0375 6.7666 11.925 6.7666 11.8125C6.7666 11.7 6.82285 11.5875 6.8791 11.5312C6.8791 11.475 6.93535 11.475 6.93535 11.4187L6.9916 11.3625C7.1041 11.3063 7.2166 11.25 7.3291 11.25C7.6666 11.25 7.8916 11.025 7.8916 10.6875V10.125C7.8916 9.7875 7.6666 9.5625 7.3291 9.5625H6.7666C6.4291 9.5625 6.2041 9.7875 6.2041 10.125C6.2041 10.4625 5.9791 10.6875 5.6416 10.6875C5.3041 10.6875 5.0791 10.4625 5.0791 10.125C5.0791 9.16875 5.81035 8.4375 6.7666 8.4375H7.3291C8.28535 8.4375 9.0166 9.16875 9.0166 10.125V10.6875ZM14.0791 13.5C14.0791 14.4563 13.3479 15.1875 12.3916 15.1875H11.8291C10.8729 15.1875 10.1416 14.4563 10.1416 13.5V10.125C10.1416 9.16875 10.8729 8.4375 11.8291 8.4375H12.3916C13.3479 8.4375 14.0791 9.16875 14.0791 10.125V13.5Z" fill="#BBBEC7"/>
</g>
</svg>
