<svg width="18" height="18" viewBox="0 0 18 18" fill="none" xmlns="http://www.w3.org/2000/svg">
<g id="email 1">
<path id="Vector" d="M6.12924 8.99995L1.62024 11.9357V6.06415L6.12924 8.99995ZM11.8712 8.99995L16.3802 11.9357V6.06415L11.8712 8.99995ZM11.2124 9.43015L9.19644 10.7423C9.13704 10.7801 9.06864 10.7999 9.00024 10.7999C8.93184 10.7999 8.86344 10.7801 8.80404 10.7423L6.78804 9.43015L1.91904 12.5999L1.63644 12.7835C1.72464 13.2911 2.16744 13.6799 2.70024 13.6799H15.3002C15.833 13.6799 16.2758 13.2929 16.364 12.7835L16.0796 12.5999L11.2124 9.43015ZM9.00024 10.0097L16.0796 5.39995L16.364 5.21635C16.2758 4.70695 15.833 4.31995 15.3002 4.31995H2.70024C2.16744 4.31995 1.72464 4.70875 1.63644 5.21635L1.91904 5.39995L9.00024 10.0097Z" fill="#BBBEC7"/>
</g>
</svg>
