<svg width="122" height="22" viewBox="0 0 122 22" fill="none" xmlns="http://www.w3.org/2000/svg">
<g id="Group 1000000884">
<path id="Vector" d="M4.29839 13.7591C4.21405 13.8076 4.14012 13.8723 4.08082 13.9494C4.02153 14.0265 3.97805 14.1146 3.95287 14.2085C3.9277 14.3025 3.92132 14.4005 3.93412 14.4969C3.94691 14.5933 3.97862 14.6863 4.02743 14.7704C4.23102 15.1258 4.68633 15.2465 5.03798 15.0421C5.1999 14.9399 5.31594 14.7789 5.36179 14.593C5.40763 14.407 5.37971 14.2106 5.28388 14.0447C5.18805 13.8789 5.03176 13.7567 4.84776 13.7036C4.66376 13.6505 4.46635 13.6706 4.29691 13.7599L4.29839 13.7591ZM5.03873 7.92826C4.95458 7.8796 4.86167 7.84799 4.76531 7.83523C4.66895 7.82248 4.57102 7.82883 4.47711 7.85392C4.3832 7.87901 4.29516 7.92236 4.218 7.98147C4.14084 8.04059 4.07609 8.11433 4.02743 8.19848C3.97877 8.28262 3.94716 8.37553 3.9344 8.47189C3.92165 8.56825 3.928 8.66618 3.95309 8.76009C3.97818 8.854 4.02153 8.94205 4.08065 9.0192C4.13977 9.09636 4.2135 9.16112 4.29765 9.20978C4.38179 9.25839 4.47469 9.28995 4.57103 9.30266C4.66738 9.31537 4.76528 9.30898 4.85915 9.28385C4.95303 9.25872 5.04103 9.21535 5.11815 9.15621C5.19526 9.09708 5.25997 9.02333 5.30858 8.93918C5.35719 8.85504 5.38875 8.76214 5.40146 8.6658C5.41417 8.56946 5.40778 8.47155 5.38265 8.37768C5.35752 8.2838 5.31415 8.1958 5.25502 8.11869C5.19588 8.04158 5.12213 7.97687 5.03798 7.92826H5.03873ZM4.62784 11.4841C4.62784 11.2877 4.54984 11.0994 4.411 10.9606C4.27216 10.8218 4.08385 10.7438 3.8875 10.7438C3.69115 10.7438 3.50285 10.8218 3.36401 10.9606C3.22517 11.0994 3.14717 11.2877 3.14717 11.4841C3.14717 11.6804 3.22517 11.8687 3.36401 12.0076C3.50285 12.1464 3.69115 12.2244 3.8875 12.2244C4.08385 12.2244 4.27216 12.1464 4.411 12.0076C4.54984 11.8687 4.62784 11.6804 4.62784 11.4841ZM10.3188 1.79605V1.1105H11.0591C11.1573 1.1105 11.2515 1.0715 11.3209 1.00208C11.3903 0.932664 11.4293 0.83851 11.4293 0.740336V0.370168C11.4293 0.167316 11.2627 0 11.0591 0H8.37542C8.17183 0 8.00525 0.167316 8.00525 0.370168V0.740336C8.00525 0.83851 8.04425 0.932664 8.11367 1.00208C8.18309 1.0715 8.27724 1.1105 8.37542 1.1105H9.11575V1.79679C4.03113 2.1107 0.00222101 6.32025 0 11.4841C0.00148067 16.8515 4.35095 21.2003 9.71765 21.2025C15.0851 21.1995 19.4338 16.8493 19.4346 11.4833C19.4346 6.31951 15.4042 2.10922 10.3188 1.79605ZM9.71765 18.9792C7.73051 18.9763 5.82561 18.1856 4.42049 16.7805C3.01537 15.3754 2.22468 13.4705 2.22175 11.4833C2.22468 9.49621 3.01537 7.59131 4.42049 6.18619C5.82561 4.78107 7.73051 3.99039 9.71765 3.98745C11.7047 3.99039 13.6095 4.7811 15.0145 6.18624C16.4195 7.59137 17.2101 9.49628 17.2128 11.4833C17.2103 13.4704 16.4198 15.3753 15.0147 16.7804C13.6096 18.1855 11.7047 18.9767 9.71765 18.9792ZM7.17237 15.892C7.00275 15.8018 6.8047 15.7809 6.62 15.8339C6.43529 15.8868 6.27837 16.0094 6.18234 16.1759C6.08631 16.3423 6.05867 16.5395 6.10525 16.7259C6.15184 16.9123 6.269 17.0734 6.43204 17.175C6.60199 17.2717 6.80326 17.2972 6.99193 17.2459C7.18059 17.1947 7.34135 17.0709 7.4391 16.9016C7.53685 16.7323 7.56367 16.5312 7.5137 16.3422C7.46373 16.1532 7.34103 15.9909 7.17237 15.892ZM7.17237 7.07465C7.26085 7.02837 7.33904 6.96467 7.40226 6.88738C7.46548 6.81009 7.51241 6.72082 7.54023 6.62492C7.56805 6.52903 7.57618 6.4285 7.56414 6.32938C7.5521 6.23026 7.52014 6.1346 7.47017 6.04815C7.4202 5.96171 7.35326 5.88626 7.27338 5.82636C7.1935 5.76645 7.10232 5.72333 7.00534 5.69957C6.90836 5.67582 6.80758 5.67192 6.70905 5.68813C6.61053 5.70433 6.5163 5.7403 6.43204 5.79387C6.26835 5.89514 6.15053 6.05617 6.10357 6.24284C6.05662 6.42951 6.0842 6.62712 6.18049 6.79379C6.27677 6.96046 6.43419 7.08308 6.61935 7.13565C6.80452 7.18822 7.00287 7.16586 7.17237 7.07465ZM15.1384 9.20978C15.2652 9.1365 15.3674 9.02726 15.4321 8.89589C15.4968 8.76452 15.521 8.61691 15.5018 8.47174C15.4826 8.32657 15.4208 8.19035 15.3242 8.08031C15.2276 7.97028 15.1005 7.89137 14.959 7.85357C14.8175 7.81576 14.668 7.82077 14.5294 7.86794C14.3908 7.91511 14.2692 8.00234 14.1802 8.11859C14.0911 8.23484 14.0386 8.37488 14.0291 8.52102C14.0197 8.66715 14.0538 8.8128 14.1271 8.93955C14.3314 9.29269 14.7845 9.41337 15.1384 9.20978ZM9.71913 16.5761C9.61922 16.5715 9.51943 16.5873 9.42577 16.6223C9.33211 16.6574 9.24652 16.7111 9.17417 16.7801C9.10182 16.8491 9.04421 16.9321 9.00482 17.0241C8.96542 17.116 8.94506 17.2149 8.94496 17.3149C8.94486 17.4149 8.96502 17.5139 9.00423 17.6059C9.04344 17.6979 9.10089 17.781 9.1731 17.8502C9.24531 17.9194 9.33079 17.9733 9.42438 18.0085C9.51797 18.0438 9.61773 18.0597 9.71765 18.0553C9.90808 18.047 10.088 17.9655 10.2199 17.8279C10.3517 17.6902 10.4254 17.507 10.4256 17.3164C10.4258 17.1258 10.3525 16.9425 10.2209 16.8046C10.0893 16.6667 9.90955 16.5848 9.71913 16.5761ZM13.0033 5.79313C12.9188 5.73905 12.8242 5.70268 12.7252 5.68623C12.6263 5.66979 12.525 5.6736 12.4276 5.69745C12.3301 5.7213 12.2385 5.76468 12.1584 5.82496C12.0782 5.88525 12.0111 5.96118 11.9611 6.04817C11.9112 6.13516 11.8794 6.23138 11.8677 6.33101C11.856 6.43064 11.8647 6.53161 11.8932 6.62779C11.9217 6.72397 11.9694 6.81337 12.0335 6.89056C12.0975 6.96775 12.1766 7.03114 12.2659 7.07687C12.435 7.16078 12.6297 7.177 12.8104 7.1222C12.991 7.06741 13.144 6.94574 13.238 6.78202C13.332 6.61831 13.3599 6.42489 13.3162 6.24126C13.2724 6.05762 13.1602 5.8976 13.0025 5.79387L13.0033 5.79313ZM15.55 10.7438C15.3537 10.7438 15.1654 10.8218 15.0265 10.9606C14.8877 11.0994 14.8097 11.2877 14.8097 11.4841C14.8097 11.6804 14.8877 11.8687 15.0265 12.0076C15.1654 12.1464 15.3537 12.2244 15.55 12.2244C15.7464 12.2244 15.9347 12.1464 16.0735 12.0076C16.2123 11.8687 16.2903 11.6804 16.2903 11.4841C16.2903 11.2877 16.2123 11.0994 16.0735 10.9606C15.9347 10.8218 15.7464 10.7438 15.55 10.7438ZM15.1391 13.7591C14.9689 13.6615 14.767 13.6351 14.5774 13.6857C14.3878 13.7363 14.2259 13.8598 14.1271 14.0294C14.0537 14.1561 14.0196 14.3017 14.029 14.4478C14.0383 14.5939 14.0908 14.7339 14.1798 14.8502C14.2687 14.9665 14.3902 15.0538 14.5288 15.101C14.6673 15.1483 14.8168 15.1534 14.9583 15.1157C15.0997 15.0781 15.2269 14.9993 15.3236 14.8894C15.4203 14.7795 15.4822 14.6433 15.5016 14.4982C15.521 14.3531 15.4969 14.2055 15.4323 14.0741C15.3678 13.9427 15.2658 13.8326 15.1391 13.7591ZM9.71765 4.91361C9.31046 4.91361 8.97731 5.24528 8.97731 5.65394L8.63305 11.0902L6.40909 12.5413C6.24717 12.6435 6.13113 12.8045 6.08529 12.9905C6.03944 13.1764 6.06736 13.3729 6.16319 13.5387C6.25902 13.7045 6.41531 13.8268 6.59931 13.8799C6.78331 13.933 6.98072 13.9128 7.15016 13.8235L9.59771 12.5827C9.63843 12.5872 9.67915 12.5953 9.72061 12.5953C10.0151 12.5953 10.2976 12.4783 10.5059 12.2701C10.7141 12.0618 10.8311 11.7794 10.8311 11.4848L10.4609 5.65394C10.4609 5.24454 10.1278 4.91361 9.72061 4.91361H9.71765ZM12.2644 15.8928C12.0943 15.9909 11.9701 16.1525 11.9191 16.3422C11.8681 16.5318 11.8946 16.7339 11.9927 16.9041C12.0908 17.0742 12.2524 17.1984 12.4421 17.2494C12.6317 17.3003 12.8339 17.2739 13.004 17.1758C13.1659 17.0735 13.282 16.9125 13.3278 16.7266C13.3736 16.5407 13.3457 16.3442 13.2499 16.1784C13.1541 16.0126 12.9978 15.8903 12.8138 15.8372C12.6298 15.7841 12.4324 15.8043 12.2629 15.8935L12.2644 15.8928ZM6.53124 1.52805C5.91232 0.758104 4.97432 0.256156 3.91045 0.256156C3.46686 0.256059 3.0276 0.343347 2.61775 0.513034C2.20789 0.682721 1.83548 0.931484 1.52178 1.24512C1.20808 1.55875 0.959239 1.9311 0.789462 2.34092C0.619685 2.75073 0.532301 3.18998 0.532301 3.63357C0.532301 4.34207 0.752181 4.99801 1.12457 5.54067C2.43728 3.64572 4.33729 2.2356 6.53124 1.52805ZM18.31 5.54067C18.6816 4.99875 18.9023 4.34281 18.9023 3.63431C18.9021 2.73849 18.5461 1.87944 17.9126 1.24607C17.279 0.612706 16.4199 0.256896 15.5241 0.256896C14.4595 0.256896 13.5222 0.758844 12.9033 1.52805C15.0969 2.23584 16.9966 3.64593 18.3092 5.54067H18.31Z" fill="#318A33"/>
<g id="REMINDER ME">
<path d="M28.9605 10.1594H29.6353C30.2966 10.1594 30.7847 10.0492 31.0996 9.82874C31.4145 9.60831 31.5719 9.26192 31.5719 8.78957C31.5719 8.32172 31.41 7.98883 31.0861 7.79089C30.7667 7.59295 30.2696 7.49398 29.5948 7.49398H28.9605V10.1594ZM28.9605 11.8598V15.6454H26.8687V5.78003H29.7432C31.0838 5.78003 32.0757 6.0252 32.719 6.51555C33.3623 7.00139 33.684 7.7414 33.684 8.73559C33.684 9.3159 33.5243 9.83324 33.2049 10.2876C32.8855 10.7375 32.4334 11.0906 31.8486 11.347C33.3331 13.5648 34.3003 14.9976 34.7501 15.6454H32.4289L30.0739 11.8598H28.9605Z" fill="#318A33"/>
<path d="M41.6734 15.6454H35.9917V5.78003H41.6734V7.49398H38.0836V9.66004H41.4238V11.374H38.0836V13.9179H41.6734V15.6454Z" fill="#318A33"/>
<path d="M47.9152 15.6454L45.54 7.9056H45.4792C45.5647 9.4801 45.6074 10.5305 45.6074 11.0568V15.6454H43.7383V5.78003H46.5859L48.9206 13.3241H48.9611L51.4376 5.78003H54.2852V15.6454H52.335V10.9759C52.335 10.7554 52.3373 10.5013 52.3418 10.2134C52.3508 9.92546 52.3823 9.1607 52.4363 7.9191H52.3755L49.8316 15.6454H47.9152Z" fill="#318A33"/>
<path d="M56.7751 15.6454V5.78003H58.867V15.6454H56.7751Z" fill="#318A33"/>
<path d="M70.1021 15.6454H67.4435L63.1518 8.18226H63.0911C63.1766 9.50034 63.2193 10.4405 63.2193 11.0029V15.6454H61.3502V5.78003H63.9886L68.2735 13.1689H68.3207C68.2532 11.8868 68.2195 10.9804 68.2195 10.4495V5.78003H70.1021V15.6454Z" fill="#318A33"/>
<path d="M80.7772 10.6182C80.7772 12.2422 80.3139 13.4861 79.3872 14.3498C78.465 15.2135 77.1311 15.6454 75.3857 15.6454H72.5921V5.78003H75.6894C77.2998 5.78003 78.5504 6.20514 79.4412 7.05537C80.3319 7.9056 80.7772 9.09322 80.7772 10.6182ZM78.6044 10.6722C78.6044 8.5534 77.6687 7.49398 75.7973 7.49398H74.6839V13.9179H75.5814C77.5967 13.9179 78.6044 12.836 78.6044 10.6722Z" fill="#318A33"/>
<path d="M88.5035 15.6454H82.8218V5.78003H88.5035V7.49398H84.9137V9.66004H88.2539V11.374H84.9137V13.9179H88.5035V15.6454Z" fill="#318A33"/>
<path d="M92.6602 10.1594H93.335C93.9963 10.1594 94.4844 10.0492 94.7993 9.82874C95.1142 9.60831 95.2716 9.26192 95.2716 8.78957C95.2716 8.32172 95.1097 7.98883 94.7858 7.79089C94.4664 7.59295 93.9693 7.49398 93.2945 7.49398H92.6602V10.1594ZM92.6602 11.8598V15.6454H90.5684V5.78003H93.443C94.7835 5.78003 95.7755 6.0252 96.4188 6.51555C97.062 7.00139 97.3837 7.7414 97.3837 8.73559C97.3837 9.3159 97.224 9.83324 96.9046 10.2876C96.5852 10.7375 96.1331 11.0906 95.5483 11.347C97.0328 13.5648 98 14.9976 98.4499 15.6454H96.1286L93.7736 11.8598H92.6602Z" fill="#318A33"/>
<path d="M107.458 15.6454L105.083 7.9056H105.022C105.108 9.4801 105.15 10.5305 105.15 11.0568V15.6454H103.281V5.78003H106.129L108.464 13.3241H108.504L110.981 5.78003H113.828V15.6454H111.878V10.9759C111.878 10.7554 111.88 10.5013 111.885 10.2134C111.894 9.92546 111.925 9.1607 111.979 7.9191H111.919L109.375 15.6454H107.458Z" fill="#318A33"/>
<path d="M122 15.6454H116.318V5.78003H122V7.49398H118.41V9.66004H121.75V11.374H118.41V13.9179H122V15.6454Z" fill="#318A33"/>
</g>
</g>
</svg>
