<svg width="22" height="22" viewBox="0 0 22 22" fill="none" xmlns="http://www.w3.org/2000/svg">
<g id="note (1) 1">
<path id="Vector" d="M15.8488 2.64001H9.69757V6.18641C9.69757 6.47532 9.64067 6.7614 9.53011 7.02832C9.41955 7.29523 9.2575 7.53776 9.05321 7.74205C8.84892 7.94634 8.60639 8.10839 8.33948 8.21895C8.07256 8.32951 7.78648 8.38641 7.49757 8.38641H3.95117V17.16C3.95117 17.7435 4.18296 18.3031 4.59554 18.7156C5.00812 19.1282 5.5677 19.36 6.15117 19.36H15.8488C16.4322 19.36 16.9918 19.1282 17.4044 18.7156C17.817 18.3031 18.0488 17.7435 18.0488 17.16V4.84001C18.0488 4.25654 17.817 3.69696 17.4044 3.28438C16.9918 2.8718 16.4322 2.64001 15.8488 2.64001ZM14.08 15.972H7.91997C7.80328 15.972 7.69136 15.9257 7.60884 15.8431C7.52633 15.7606 7.47997 15.6487 7.47997 15.532C7.47997 15.4153 7.52633 15.3034 7.60884 15.2209C7.69136 15.1384 7.80328 15.092 7.91997 15.092H14.08C14.1967 15.092 14.3086 15.1384 14.3911 15.2209C14.4736 15.3034 14.52 15.4153 14.52 15.532C14.52 15.6487 14.4736 15.7606 14.3911 15.8431C14.3086 15.9257 14.1967 15.972 14.08 15.972ZM14.08 13.244H7.91997C7.80328 13.244 7.69136 13.1977 7.60884 13.1151C7.52633 13.0326 7.47997 12.9207 7.47997 12.804C7.47997 12.6873 7.52633 12.5754 7.60884 12.4929C7.69136 12.4104 7.80328 12.364 7.91997 12.364H14.08C14.1967 12.364 14.3086 12.4104 14.3911 12.4929C14.4736 12.5754 14.52 12.6873 14.52 12.804C14.52 12.9207 14.4736 13.0326 14.3911 13.1151C14.3086 13.1977 14.1967 13.244 14.08 13.244ZM14.08 10.516H7.91997C7.80328 10.516 7.69136 10.4697 7.60884 10.3871C7.52633 10.3046 7.47997 10.1927 7.47997 10.076C7.47997 9.95932 7.52633 9.8474 7.60884 9.76489C7.69136 9.68237 7.80328 9.63601 7.91997 9.63601H14.08C14.1967 9.63601 14.3086 9.68237 14.3911 9.76489C14.4736 9.8474 14.52 9.95932 14.52 10.076C14.52 10.1927 14.4736 10.3046 14.3911 10.3871C14.3086 10.4697 14.1967 10.516 14.08 10.516ZM14.08 7.78801H10.8152C10.6985 7.78801 10.5866 7.74166 10.504 7.65914C10.4215 7.57662 10.3752 7.46471 10.3752 7.34801C10.3752 7.23132 10.4215 7.1194 10.504 7.03689C10.5866 6.95437 10.6985 6.90801 10.8152 6.90801H14.08C14.1967 6.90801 14.3086 6.95437 14.3911 7.03689C14.4736 7.1194 14.52 7.23132 14.52 7.34801C14.52 7.46471 14.4736 7.57662 14.3911 7.65914C14.3086 7.74166 14.1967 7.78801 14.08 7.78801ZM7.49757 7.50641H4.21517L8.81757 2.90401V6.18641C8.81757 6.5365 8.6785 6.87225 8.43095 7.1198C8.1834 7.36734 7.84766 7.50641 7.49757 7.50641Z" fill="#BBBEC7"/>
</g>
</svg>
