<svg width="19" height="19" viewBox="0 0 19 19" fill="none" xmlns="http://www.w3.org/2000/svg">
<path id="Vector" fill-rule="evenodd" clip-rule="evenodd" d="M4.71924 14.3564L7.47867 11.5969L9.05698 13.1753C10.0182 14.1364 10.8748 14.3563 12.7307 12.816C13.1552 12.3914 13.871 11.8336 14.5567 12.0948L17.7188 13.9833C18.6141 14.6663 18.6303 15.1088 18.2657 15.8038C16.0031 20.1167 10.8229 20.2478 4.71924 14.3564ZM4.71924 14.3564C-1.17221 8.25268 -1.04108 3.07253 3.2718 0.80988C3.96686 0.445318 4.4093 0.461533 5.09232 1.35682L6.98083 4.51891C7.24205 5.20467 6.68418 5.92037 6.25965 6.3449C4.71937 8.20085 4.93917 9.05745 5.90036 10.0186L7.47867 11.5969L4.71924 14.3564Z" fill="#BBBEC7"/>
</svg>
