<svg width="19" height="18" viewBox="0 0 19 18" fill="none" xmlns="http://www.w3.org/2000/svg">
<g id="time-zone" clip-path="url(#clip0_21_631)">
<g id="Group 1000000893">
<path id="Vector" d="M15.4854 16.875C16.8833 16.875 18.0166 15.7417 18.0166 14.3438C18.0166 12.9458 16.8833 11.8125 15.4854 11.8125C14.0874 11.8125 12.9541 12.9458 12.9541 14.3438C12.9541 15.7417 14.0874 16.875 15.4854 16.875Z" fill="#BBBEC7"/>
<path id="Vector_2" d="M15.4854 11.8125C14.9299 11.8125 14.418 11.9933 14.0006 12.2965C13.6974 12.7139 13.5166 13.2258 13.5166 13.7812C13.5166 15.1793 14.6498 16.3125 16.0479 16.3125C16.603 16.3125 17.1152 16.1317 17.5326 15.8285C17.8358 15.4111 18.0166 14.8992 18.0166 14.3438C18.0166 12.9457 16.8834 11.8125 15.4854 11.8125Z" fill="#6AC4E8"/>
<path id="Vector_3" d="M15.2042 16.0312H15.7667V14.3437C15.7667 14.2689 15.7372 14.1975 15.6843 14.1449L14.8406 13.3011L14.4429 13.6988L15.2042 14.4602V16.0312Z" fill="white"/>
</g>
<path id="Vector_4" d="M9.5791 16.875C10.9771 16.875 12.1104 15.7417 12.1104 14.3438C12.1104 12.9458 10.9771 11.8125 9.5791 11.8125C8.18113 11.8125 7.04785 12.9458 7.04785 14.3438C7.04785 15.7417 8.18113 16.875 9.5791 16.875Z" fill="#BBBEC7"/>
<path id="Vector_5" d="M9.5791 11.8125C9.02363 11.8125 8.51176 11.9933 8.09438 12.2965C7.7912 12.7139 7.61035 13.2258 7.61035 13.7812C7.61035 15.1793 8.74351 16.3125 10.1416 16.3125C10.6968 16.3125 11.2089 16.1317 11.6263 15.8285C11.9295 15.4111 12.1104 14.8992 12.1104 14.3438C12.1104 12.9457 10.9772 11.8125 9.5791 11.8125Z" fill="#6AC4E8"/>
<path id="Vector_6" d="M1.50526 2.53125C1.63266 2.53125 1.75473 2.58187 1.84473 2.67188C1.93473 2.76188 1.98535 2.88394 1.98535 3.01134C1.98535 3.43856 1.91645 3.86269 1.78145 4.26797C1.73026 4.42153 1.7041 4.58269 1.7041 4.74441C1.7041 5.11172 1.91166 5.44725 2.24016 5.6115L3.44757 6.21534C3.75807 6.37059 3.9541 6.68813 3.9541 7.03519C3.9541 7.21603 4.00754 7.39294 4.10795 7.54341C4.37795 7.94841 4.5706 8.40009 4.67607 8.87541L4.99248 10.3027C5.04226 10.5275 5.24138 10.6875 5.47173 10.6875H5.48241C5.73695 10.6875 5.95154 10.503 5.98895 10.2533C6.03451 9.95034 6.09554 9.54394 6.1442 9.22134C6.19735 8.86922 6.33263 8.53509 6.53935 8.24512C6.54188 8.24147 6.54441 8.23781 6.54695 8.23444C6.68701 8.03784 6.76323 7.803 6.76491 7.56141C6.76491 7.55578 6.76491 7.55016 6.76491 7.54453C6.76716 7.18847 6.60404 6.85266 6.32279 6.63441C5.50098 5.99597 3.82473 4.62459 3.82473 4.62459C3.72854 4.54556 3.67285 4.428 3.67285 4.30341C3.67285 4.09444 3.82866 3.91781 4.03595 3.89194L4.6592 3.81403C5.38116 3.72403 5.92285 3.11034 5.92285 2.38275C5.92285 2.12906 6.06629 1.89703 6.29326 1.78369C6.41082 1.72462 6.48535 1.60425 6.48535 1.47263C6.48535 1.28053 6.32982 1.125 6.13773 1.125C5.62079 1.125 5.10498 1.17619 4.59788 1.27744C4.59085 1.27884 4.58382 1.28025 4.57679 1.28166C4.16279 1.36463 3.74232 1.40625 3.32016 1.40625C2.89998 1.40625 2.34648 1.40625 1.90238 1.40597C1.48163 1.40597 1.1416 1.74684 1.1416 2.16759C1.1416 2.36841 1.30445 2.53125 1.50526 2.53125ZM11.9824 5.44669L11.6294 6.50531C11.5757 6.66619 11.4854 6.81272 11.3653 6.93253C11.122 7.17581 10.9854 7.50572 10.9854 7.84997C10.9854 8.05134 10.9384 8.25019 10.8484 8.43019L10.5671 8.99297C10.4785 9.16959 10.298 9.28125 10.1005 9.28125C9.81254 9.28125 9.5791 9.04781 9.5791 8.75981V7.8525C9.5791 7.49503 9.52145 7.13953 9.40838 6.80034C9.34229 6.60234 9.15695 6.46875 8.94826 6.46875C8.36466 6.46875 7.8916 5.99569 7.8916 5.41209C7.8916 5.00822 8.05191 4.62094 8.33766 4.33547C8.5922 4.08066 8.73535 3.73528 8.73535 3.375C8.73535 3.21975 8.86135 3.09375 9.0166 3.09375C9.17185 3.09375 9.29785 2.96775 9.29785 2.8125C9.29785 2.34647 9.67557 1.96875 10.1416 1.96875C10.6937 1.96875 11.2354 1.81856 11.7087 1.53478C12.1556 1.26647 12.6669 1.125 13.1878 1.125C13.5869 1.125 13.9787 1.23356 14.321 1.43888C14.9026 1.78791 15.554 2.00362 16.229 2.07112L17.6763 2.21597C17.8695 2.23538 18.0166 2.39794 18.0166 2.59228C18.0166 2.86931 17.7922 3.09375 17.5151 3.09375C17.0154 3.09375 16.6104 3.49875 16.6104 3.99853C16.6104 4.13353 16.5341 4.257 16.4132 4.31747C16.1893 4.42913 16.0479 4.65806 16.0479 4.90866C16.0479 5.19694 16.0014 5.48325 15.9103 5.75663C15.8245 6.01397 15.5835 6.1875 15.3124 6.1875C15.0736 6.1875 14.8554 6.0525 14.7488 5.83903L14.4565 5.25459C14.3975 5.13703 14.2771 5.0625 14.1455 5.0625C13.9534 5.0625 13.7979 5.21803 13.7979 5.41012V5.87166C13.7979 6.04603 13.6564 6.1875 13.482 6.1875C13.3372 6.1875 13.2106 6.08878 13.1754 5.94816L13.0604 5.48803C12.998 5.238 12.7733 5.0625 12.5154 5.0625C12.2735 5.0625 12.0589 5.21719 11.9824 5.44669ZM15.2041 8.83659C15.2041 9.23738 15.5292 9.5625 15.93 9.5625C16.0079 9.5625 16.0855 9.54984 16.1595 9.52538L16.8916 9.28125L17.0289 9.55547C17.1172 9.73209 17.2977 9.84375 17.4952 9.84375C17.7832 9.84375 18.0166 9.61031 18.0166 9.32231V8.69513C18.0166 8.08678 17.5236 7.59375 16.9155 7.59375C16.7158 7.59375 16.5201 7.64803 16.3491 7.75069L15.5467 8.23219C15.334 8.35959 15.2041 8.58909 15.2041 8.83659Z" fill="#B0B2BA"/>
<path id="Vector_7" d="M3.67285 16.875C5.07082 16.875 6.2041 15.7417 6.2041 14.3438C6.2041 12.9458 5.07082 11.8125 3.67285 11.8125C2.27488 11.8125 1.1416 12.9458 1.1416 14.3438C1.1416 15.7417 2.27488 16.875 3.67285 16.875Z" fill="#BBBEC7"/>
<path id="Vector_8" d="M3.67285 11.8125C3.11738 11.8125 2.60551 11.9933 2.18813 12.2965C1.88495 12.7139 1.7041 13.2258 1.7041 13.7812C1.7041 15.1793 2.83726 16.3125 4.23535 16.3125C4.79054 16.3125 5.3027 16.1317 5.72007 15.8285C6.02326 15.4111 6.2041 14.8992 6.2041 14.3438C6.2041 12.9457 5.07095 11.8125 3.67285 11.8125Z" fill="#6AC4E8"/>
<path id="Vector_9" d="M9.57922 14.625C9.50609 14.625 9.43409 14.5963 9.38037 14.5426L8.53662 13.6988L8.93431 13.3012L9.29797 13.6648V12.6562H9.86047V14.3438C9.86047 14.4574 9.79212 14.5603 9.68693 14.6036C9.65206 14.6182 9.6155 14.625 9.57922 14.625ZM3.02806 15.3863L2.63037 14.9887L3.47412 14.1449C3.52671 14.092 3.59815 14.0625 3.67296 14.0625H5.36046V14.625H3.7894L3.02806 15.3863Z" fill="white"/>
<path id="Vector_10" d="M6.14422 9.22134C6.19625 8.87625 6.32815 8.54916 6.52784 8.26341C6.57931 8.1135 6.64569 7.96978 6.72753 7.83366C6.74947 7.74478 6.76437 7.65422 6.76494 7.56141C6.76494 7.55578 6.76494 7.55016 6.76494 7.54453C6.76719 7.18847 6.60406 6.85266 6.32281 6.63441C5.501 5.99597 3.82475 4.62459 3.82475 4.62459C3.72856 4.54556 3.67287 4.428 3.67287 4.30341C3.67287 4.11047 3.80787 3.951 3.99153 3.90628C3.96903 3.85453 3.95581 3.79884 3.95581 3.74091C3.95581 3.53194 4.11162 3.35531 4.3189 3.32944L4.94215 3.25153C5.32044 3.20428 5.6464 3.01106 5.87365 2.73516C5.90262 2.62181 5.92287 2.50481 5.92287 2.38275C5.92287 2.16619 6.03172 1.97016 6.20356 1.84528C6.20384 1.83684 6.20581 1.82869 6.20581 1.82025C6.20581 1.62197 6.29525 1.43888 6.44206 1.31344C6.38384 1.20291 6.27134 1.125 6.13775 1.125C5.62081 1.125 5.105 1.17619 4.59819 1.27744C4.59115 1.27884 4.58412 1.28025 4.57709 1.28166C4.16281 1.36463 3.74234 1.40625 3.32019 1.40625C2.9 1.40625 2.3465 1.40625 1.9024 1.40597C1.72156 1.40597 1.55787 1.4715 1.42737 1.57697C1.42709 1.58653 1.42456 1.59553 1.42456 1.60509C1.42456 1.80591 1.5874 1.96875 1.78822 1.96875C1.91562 1.96875 2.03769 2.01938 2.12769 2.10938C2.21769 2.19938 2.26831 2.32144 2.26831 2.44884C2.26831 2.87606 2.1994 3.30019 2.0644 3.70547C2.01322 3.85903 1.98706 4.01991 1.98706 4.18191C1.98706 4.54922 2.19462 4.88475 2.52312 5.049L3.73053 5.65284C4.04103 5.80809 4.23706 6.12534 4.23706 6.47241C4.23706 6.65325 4.2905 6.83016 4.3909 6.98063C4.6609 7.38562 4.85356 7.83731 4.95903 8.31262L5.27544 9.73997C5.32522 9.96497 5.52434 10.125 5.75469 10.125H5.76537C5.85706 10.125 5.9434 10.1003 6.01822 10.0578C6.05872 9.78863 6.10512 9.47953 6.14422 9.22134ZM8.90019 3.77269C8.61444 4.05844 8.45412 4.44572 8.45412 4.84959C8.45412 5.43319 8.92719 5.90625 9.51078 5.90625C9.71947 5.90625 9.90481 6.03984 9.9709 6.23784C10.084 6.57703 10.1416 6.93225 10.1416 7.29V8.19731C10.1416 8.48531 10.3751 8.71875 10.6631 8.71875C10.6782 8.71875 10.6923 8.71397 10.7072 8.71256L10.8484 8.43019C10.9384 8.24991 10.9854 8.05134 10.9854 7.84997C10.9854 7.50572 11.1221 7.17581 11.3653 6.93253C11.4854 6.81244 11.5757 6.66619 11.6294 6.50531L11.9821 5.44697C12.0552 5.22788 12.2552 5.08106 12.4836 5.06784L12.5446 4.88447C12.6214 4.65469 12.836 4.5 13.0779 4.5C13.3358 4.5 13.5605 4.6755 13.6229 4.92553L13.738 5.38566C13.7489 5.42953 13.7712 5.46722 13.7979 5.50125V5.40984C13.7979 5.21803 13.9534 5.0625 14.1455 5.0625C14.2257 5.0625 14.2999 5.09259 14.3604 5.14097V4.84763C14.3604 4.65553 14.5159 4.5 14.708 4.5C14.8396 4.5 14.96 4.57453 15.0191 4.69209L15.3113 5.27653C15.4179 5.49 15.6361 5.625 15.8749 5.625C15.9005 5.625 15.9252 5.62191 15.95 5.61909C16.0136 5.38763 16.0479 5.14912 16.0479 4.90866C16.0479 4.65834 16.1893 4.42941 16.4132 4.31719C16.5342 4.257 16.6104 4.13353 16.6104 3.99853C16.6104 3.60113 16.8683 3.26728 17.2249 3.14578C17.3388 2.81109 17.6409 2.56753 18.0065 2.53856C17.9815 2.36981 17.8507 2.23341 17.676 2.21597L16.2287 2.07112C15.554 2.00362 14.9023 1.78763 14.3207 1.43888C13.9787 1.23356 13.5869 1.125 13.1878 1.125C12.667 1.125 12.1557 1.26647 11.709 1.5345C11.2354 1.81856 10.6937 1.96875 10.1416 1.96875C10.057 1.96875 9.97681 1.98506 9.89975 2.00812C9.87669 2.08519 9.86037 2.16534 9.86037 2.25C9.86037 2.40525 9.73437 2.53125 9.57912 2.53125C9.42387 2.53125 9.29787 2.65725 9.29787 2.8125C9.29787 3.17278 9.15472 3.51816 8.90019 3.77269ZM16.9155 7.59375C16.8241 7.59375 16.7338 7.60641 16.6461 7.62862L16.1089 7.95094C15.8966 8.07834 15.7666 8.30784 15.7666 8.55534C15.7666 8.95613 16.0917 9.28125 16.4925 9.28125C16.5704 9.28125 16.6481 9.26859 16.722 9.24413L17.4541 9L17.5914 9.27422C17.6651 9.42159 17.8043 9.51947 17.9629 9.54928C17.9961 9.48037 18.0166 9.40388 18.0166 9.32231V8.69513C18.0166 8.08678 17.5236 7.59375 16.9155 7.59375Z" fill="#BBBEC7"/>
</g>
<defs>
<clipPath id="clip0_21_631">
<rect width="18" height="18" fill="white" transform="translate(0.579102)"/>
</clipPath>
</defs>
</svg>
