<svg width="35" height="35" viewBox="0 0 35 35" fill="none" xmlns="http://www.w3.org/2000/svg">
<g id="manage-time 1">
<path id="Vector" d="M17.0482 33.5638C26.1695 33.5638 33.5637 26.1695 33.5637 17.0483C33.5637 7.92702 26.1695 0.532776 17.0482 0.532776C7.92696 0.532776 0.532715 7.92702 0.532715 17.0483C0.532715 26.1695 7.92696 33.5638 17.0482 33.5638Z" fill="#3BA33D"/>
<path id="Vector_2" d="M30.3674 17.0483C30.3712 17.2261 30.364 17.404 30.3461 17.581C30.2464 20.1225 29.4205 22.5821 27.9661 24.6687C26.5118 26.7554 24.49 28.3815 22.1401 29.3546C19.7903 30.3278 17.2107 30.6071 14.707 30.1597C12.2032 29.7122 9.88018 28.5566 8.01287 26.8297C7.75714 26.5953 7.50142 26.3396 7.26701 26.0838C5.11053 23.7646 3.86218 20.7459 3.7508 17.581C3.73285 17.404 3.72573 17.2261 3.72949 17.0483C3.72573 16.8704 3.73284 16.6925 3.7508 16.5155C3.86221 13.3506 5.11055 10.3319 7.26701 8.01267C7.50142 7.75695 7.75714 7.50123 8.01287 7.26681C10.3321 5.11036 13.3508 3.86202 16.5157 3.75061C16.6927 3.73268 16.8706 3.72556 17.0484 3.7293C17.2263 3.72556 17.4042 3.73268 17.5812 3.75061C20.7461 3.86202 23.7648 5.11036 26.084 7.26681C26.3397 7.50123 26.5955 7.75695 26.8299 8.01267C28.9863 10.3319 30.2347 13.3506 30.3461 16.5155C30.364 16.6925 30.3712 16.8704 30.3674 17.0483Z" fill="#F2F2F2"/>
<path id="Vector_3" d="M9.07838 26.8297C8.82266 26.5953 8.56693 26.3395 8.33252 26.0838C6.17604 23.7646 4.9277 20.7459 4.81632 17.581C4.79836 17.404 4.79124 17.2261 4.79501 17.0482C4.79124 16.8704 4.79836 16.6925 4.81632 16.5155C4.92772 13.3506 6.17607 10.3319 8.33252 8.01267C8.56693 7.75695 8.82266 7.50122 9.07838 7.26681C11.3976 5.11036 14.4163 3.86202 17.5812 3.75061C17.4042 3.73268 17.2263 3.72556 17.0484 3.7293C16.8706 3.72556 16.6927 3.73268 16.5157 3.75061C13.3508 3.86202 10.3321 5.11036 8.01287 7.26681C7.75714 7.50122 7.50142 7.75695 7.267 8.01267C5.11055 10.3319 3.86221 13.3506 3.7508 16.5155C3.73284 16.6925 3.72573 16.8704 3.72949 17.0482C3.72573 17.2261 3.73285 17.404 3.7508 17.581C3.86218 20.7459 5.11053 23.7646 7.267 26.0838C7.50142 26.3395 7.75714 26.5953 8.01287 26.8297C10.4705 29.1067 13.6981 30.3703 17.0484 30.3672C17.2258 30.3672 17.3983 30.3481 17.574 30.3412C14.4142 30.2202 11.4015 28.9749 9.07838 26.8297Z" fill="#E0E0E2"/>
<path id="Vector_4" d="M6.39337 17.0483C6.39406 17.1184 6.38076 17.188 6.35423 17.253C6.3277 17.3179 6.28848 17.3769 6.23887 17.4266C6.18926 17.4762 6.13026 17.5154 6.06531 17.5419C6.00036 17.5684 5.93077 17.5817 5.86061 17.5811H2.68537C2.66742 17.4041 2.6603 17.2261 2.66406 17.0483C2.6603 16.8704 2.66741 16.6925 2.68537 16.5155H5.86061C5.93077 16.5148 6.00036 16.5281 6.06531 16.5547C6.13026 16.5812 6.18927 16.6204 6.23888 16.67C6.28849 16.7196 6.32771 16.7786 6.35424 16.8436C6.38076 16.9085 6.39407 16.9781 6.39337 17.0483ZM31.433 17.0483C31.4368 17.2261 31.4297 17.4041 31.4117 17.5811H28.2365C28.0952 17.5811 27.9597 17.5249 27.8597 17.425C27.7598 17.3251 27.7037 17.1896 27.7037 17.0483C27.7037 16.907 27.7598 16.7715 27.8597 16.6716C27.9597 16.5717 28.0952 16.5155 28.2365 16.5155H31.4117C31.4297 16.6925 31.4368 16.8704 31.433 17.0483ZM17.0485 6.39313C16.9784 6.39382 16.9088 6.38051 16.8438 6.35398C16.7789 6.32746 16.7199 6.28824 16.6703 6.23863C16.6207 6.18902 16.5814 6.13001 16.5549 6.06506C16.5284 6.00011 16.5151 5.93053 16.5158 5.86037V2.68513C16.6928 2.66717 16.8707 2.66005 17.0485 2.66382C17.2264 2.66005 17.4043 2.66717 17.5813 2.68513V5.86037C17.582 5.93053 17.5687 6.00012 17.5422 6.06507C17.5156 6.13002 17.4764 6.18903 17.4268 6.23864C17.3772 6.28825 17.3182 6.32747 17.2532 6.35399C17.1883 6.38052 17.1187 6.39382 17.0485 6.39313ZM17.0485 31.4328C16.8707 31.4365 16.6928 31.4294 16.5158 31.4115V28.2362C16.5158 28.0949 16.5719 27.9594 16.6718 27.8595C16.7717 27.7596 16.9072 27.7035 17.0485 27.7035C17.1898 27.7035 17.3253 27.7596 17.4253 27.8595C17.5252 27.9594 17.5813 28.0949 17.5813 28.2362V31.4115C17.4043 31.4294 17.2264 31.4365 17.0485 31.4328ZM24.5829 9.51395C24.5328 9.46483 24.493 9.40622 24.4658 9.34153C24.4386 9.27685 24.4247 9.20739 24.4247 9.13723C24.4247 9.06707 24.4386 8.99762 24.4658 8.93293C24.493 8.86825 24.5328 8.80963 24.5829 8.76051L26.8281 6.5153C26.9659 6.62774 27.0968 6.74852 27.2199 6.87694C27.3483 7.00004 27.4691 7.13088 27.5815 7.26874L25.3363 9.51395C25.2872 9.56405 25.2286 9.60385 25.1639 9.63102C25.0992 9.65819 25.0297 9.67218 24.9596 9.67218C24.8894 9.67218 24.82 9.65819 24.7553 9.63102C24.6906 9.60385 24.632 9.56405 24.5829 9.51395ZM6.87718 27.2197C6.74876 27.0965 6.62799 26.9657 6.51554 26.8279L8.76076 24.5826C8.81023 24.5332 8.86896 24.4939 8.9336 24.4671C8.99823 24.4404 9.06751 24.4266 9.13747 24.4266C9.20744 24.4266 9.27672 24.4404 9.34135 24.4671C9.40599 24.4939 9.46472 24.5332 9.51419 24.5826C9.56367 24.6321 9.60291 24.6908 9.62968 24.7555C9.65646 24.8201 9.67024 24.8894 9.67024 24.9594C9.67024 25.0293 9.65646 25.0986 9.62968 25.1632C9.60291 25.2279 9.56367 25.2866 9.51419 25.3361L7.26898 27.5813C7.13113 27.4688 7.00028 27.3481 6.87718 27.2197ZM24.5829 24.5826C24.632 24.5325 24.6906 24.4927 24.7553 24.4656C24.82 24.4384 24.8894 24.4244 24.9596 24.4244C25.0298 24.4244 25.0992 24.4384 25.1639 24.4656C25.2286 24.4927 25.2872 24.5325 25.3363 24.5826L27.5815 26.8279C27.3509 27.0987 27.0989 27.3507 26.8281 27.5813L24.5829 25.3361C24.5328 25.287 24.493 25.2283 24.4658 25.1637C24.4386 25.099 24.4246 25.0295 24.4246 24.9594C24.4246 24.8892 24.4386 24.8197 24.4658 24.7551C24.493 24.6904 24.5328 24.6318 24.5829 24.5826ZM6.87718 6.87694C7.00028 6.74852 7.13113 6.62774 7.26898 6.5153L9.51419 8.76053C9.61411 8.86044 9.67024 8.99595 9.67024 9.13724C9.67024 9.27854 9.61411 9.41405 9.51419 9.51396C9.41428 9.61387 9.27877 9.67 9.13747 9.67C8.99618 9.67 8.86067 9.61387 8.76076 9.51396L6.51554 7.26874C6.62799 7.13088 6.74876 7.00004 6.87718 6.87694ZM17.0485 16.5155C16.9786 16.5156 16.9093 16.5018 16.8446 16.4751C16.78 16.4483 16.7212 16.4091 16.6717 16.3596C16.6222 16.3101 16.583 16.2514 16.5562 16.1867C16.5295 16.122 16.5157 16.0528 16.5158 15.9828V9.05692C16.5158 8.91562 16.5719 8.78011 16.6718 8.6802C16.7717 8.58029 16.9072 8.52416 17.0485 8.52416C17.1898 8.52416 17.3253 8.58029 17.4253 8.6802C17.5252 8.78011 17.5813 8.91562 17.5813 9.05692V15.9828C17.5813 16.0528 17.5676 16.122 17.5408 16.1867C17.5141 16.2514 17.4748 16.3101 17.4253 16.3596C17.3759 16.4091 17.3171 16.4483 17.2525 16.4751C17.1878 16.5018 17.1185 16.5156 17.0485 16.5155Z" fill="#3C3B41"/>
<path id="Vector_5" d="M17.0482 0.532776C13.7818 0.532776 10.5887 1.50139 7.8727 3.31614C5.15674 5.13089 3.03991 7.71026 1.78989 10.7281C0.539871 13.7459 0.212809 17.0666 0.850063 20.2703C1.48732 23.474 3.06027 26.4168 5.37 28.7265C7.67974 31.0363 10.6225 32.6092 13.8262 33.2465C17.0299 33.8837 20.3506 33.5567 23.3684 32.3066C26.3863 31.0566 28.9656 28.9398 30.7804 26.2238C32.5951 23.5079 33.5637 20.3147 33.5637 17.0483C33.5636 12.6681 31.8235 8.46745 28.7263 5.37022C25.6291 2.273 21.4284 0.532926 17.0482 0.532776ZM17.0482 30.3673C13.6979 30.3704 10.4703 29.1067 8.01265 26.8297C7.75692 26.5953 7.5012 26.3396 7.26679 26.0839C5.11031 23.7647 3.86196 20.746 3.75058 17.581C3.73262 17.4041 3.72551 17.2261 3.72927 17.0483C3.7255 16.8704 3.73262 16.6925 3.75058 16.5155C3.86199 13.3506 5.11033 10.3319 7.26679 8.0127C7.5012 7.75698 7.75692 7.50126 8.01265 7.26684C10.3319 5.11039 13.3506 3.86205 16.5155 3.75064C16.6925 3.73271 16.8704 3.72559 17.0482 3.72933C17.2261 3.72559 17.404 3.73271 17.581 3.75064C20.7459 3.86205 23.7646 5.11039 26.0838 7.26684C26.3395 7.50126 26.5953 7.75698 26.8297 8.0127C28.9861 10.3319 30.2345 13.3506 30.3459 16.5155C30.3638 16.6925 30.371 16.8704 30.3672 17.0483C30.371 17.2261 30.3638 17.4041 30.3459 17.581C30.2114 21.0177 28.7516 24.2688 26.2725 26.6526C23.7933 29.0363 20.4875 30.3676 17.0482 30.3673Z" fill="#3BA33D"/>
<path id="Vector_6" d="M1.59823 17.0483C1.60014 12.7627 3.26901 8.64584 6.25183 5.56862C9.23465 2.4914 13.2975 0.695103 17.581 0.559701C17.4025 0.55398 17.2281 0.532776 17.0482 0.532776C12.668 0.532776 8.46725 2.2728 5.36999 5.37006C2.27274 8.46732 0.532715 12.6681 0.532715 17.0483C0.532715 21.4285 2.27274 25.6293 5.36999 28.7265C8.46725 31.8238 12.668 33.5638 17.0482 33.5638C17.2281 33.5638 17.4025 33.5426 17.581 33.5369C13.2975 33.4015 9.23465 31.6052 6.25183 28.528C3.26901 25.4507 1.60014 21.3339 1.59823 17.0483Z" fill="#308532"/>
<path id="Vector_7" d="M15.9828 17.581H11.7207C11.5794 17.581 11.4439 17.5249 11.344 17.425C11.2441 17.3251 11.188 17.1896 11.188 17.0483C11.188 16.907 11.2441 16.7715 11.344 16.6715C11.4439 16.5716 11.5794 16.5155 11.7207 16.5155H15.9828C16.1241 16.5155 16.2596 16.5716 16.3595 16.6715C16.4594 16.7715 16.5156 16.907 16.5156 17.0483C16.5156 17.1896 16.4594 17.3251 16.3595 17.425C16.2596 17.5249 16.1241 17.581 15.9828 17.581Z" fill="#3C3B41"/>
<path id="Vector_8" d="M17.0484 18.1138C17.6369 18.1138 18.1139 17.6367 18.1139 17.0482C18.1139 16.4598 17.6369 15.9827 17.0484 15.9827C16.46 15.9827 15.9829 16.4598 15.9829 17.0482C15.9829 17.6367 16.46 18.1138 17.0484 18.1138Z" fill="#3BA33D"/>
<path id="Vector_9" d="M25.5724 33.5637C29.9859 33.5637 33.5638 29.9859 33.5638 25.5724C33.5638 21.1589 29.9859 17.581 25.5724 17.581C21.1589 17.581 17.5811 21.1589 17.5811 25.5724C17.5811 29.9859 21.1589 33.5637 25.5724 33.5637Z" fill="#37B678"/>
<path id="Vector_10" d="M18.6466 25.5724C18.6475 23.5463 19.4185 21.5963 20.8034 20.1175C22.1883 18.6386 24.0835 17.7415 26.1052 17.6079C25.9283 17.5961 25.7523 17.581 25.5724 17.581C23.453 17.581 21.4203 18.4229 19.9217 19.9216C18.423 21.4203 17.5811 23.4529 17.5811 25.5724C17.5811 27.6918 18.423 29.7244 19.9217 31.2231C21.4203 32.7218 23.453 33.5637 25.5724 33.5637C25.7523 33.5637 25.9283 33.5486 26.1052 33.5369C24.0835 33.4032 22.1883 32.5061 20.8034 31.0272C19.4185 29.5484 18.6475 27.5984 18.6466 25.5724Z" fill="#00A653"/>
<path id="Vector_11" d="M31.9657 26.2598V24.885L30.8422 24.6867C30.7326 24.1669 30.5269 23.6722 30.2358 23.2279L30.8914 22.2913L29.9192 21.3191L28.9826 21.9747C28.5383 21.6835 28.0436 21.4779 27.5238 21.3683L27.3256 20.2448H25.9507L25.7524 21.3683C25.2327 21.4779 24.7379 21.6836 24.2936 21.9747L23.357 21.3191L22.3848 22.2913L23.0404 23.2279C22.7493 23.6722 22.5436 24.167 22.434 24.6867L21.3105 24.885V26.2598L22.4341 26.4581C22.5437 26.9779 22.7493 27.4726 23.0404 27.9169L22.3849 28.8535L23.357 29.8257L24.2936 29.1701C24.7379 29.4613 25.2327 29.6669 25.7525 29.7765L25.9507 30.9H27.3256L27.5238 29.7764C28.0436 29.6669 28.5384 29.4612 28.9827 29.1701L29.9193 29.8257L30.8914 28.8535L30.2358 27.9169C30.527 27.4726 30.7326 26.9778 30.8422 26.458L31.9657 26.2598Z" fill="#00A653"/>
<path id="Vector_12" d="M30.8998 26.2598V24.885L29.7763 24.6867C29.6667 24.1669 29.461 23.6722 29.1699 23.2279L29.8255 22.2913L28.8533 21.3191L27.9167 21.9747C27.4724 21.6835 26.9776 21.4779 26.4579 21.3683L26.2596 20.2448H24.8848L24.6865 21.3683C24.1667 21.4779 23.672 21.6836 23.2277 21.9747L22.2911 21.3191L21.3189 22.2913L21.9745 23.2279C21.6833 23.6722 21.4777 24.167 21.3681 24.6867L20.2446 24.885V26.2598L21.3682 26.4581C21.4777 26.9779 21.6834 27.4726 21.9745 27.9169L21.3189 28.8535L22.2911 29.8257L23.2277 29.1701C23.672 29.4613 24.1668 29.6669 24.6866 29.7765L24.8848 30.9H26.2596L26.4579 29.7764C26.9777 29.6669 27.4724 29.4612 27.9167 29.1701L28.8533 29.8257L29.8255 28.8535L29.1699 27.9169C29.4611 27.4726 29.6667 26.9778 29.7763 26.458L30.8998 26.2598Z" fill="white"/>
<path id="Vector_13" d="M25.5724 27.1707C26.4551 27.1707 27.1707 26.4551 27.1707 25.5724C27.1707 24.6897 26.4551 23.9741 25.5724 23.9741C24.6897 23.9741 23.9741 24.6897 23.9741 25.5724C23.9741 26.4551 24.6897 27.1707 25.5724 27.1707Z" fill="#37B678"/>
<path id="Vector_14" d="M25.5724 27.1707C25.7542 27.1689 25.9345 27.1358 26.1051 27.0729C25.7938 26.9642 25.524 26.7614 25.3331 26.4925C25.1422 26.2237 25.0396 25.9021 25.0396 25.5724C25.0396 25.2427 25.1422 24.9211 25.3331 24.6522C25.524 24.3834 25.7938 24.1806 26.1051 24.0719C25.886 23.9939 25.6524 23.9647 25.4207 23.9864C25.1891 24.0081 24.965 24.0802 24.7642 24.1977C24.5634 24.3151 24.3907 24.4751 24.2582 24.6663C24.1257 24.8575 24.0366 25.0754 23.9972 25.3047C23.9578 25.534 23.969 25.7691 24.03 25.9936C24.091 26.2181 24.2004 26.4265 24.3505 26.6043C24.5005 26.7821 24.6877 26.9249 24.8987 27.0227C25.1098 27.1206 25.3397 27.1711 25.5724 27.1707Z" fill="#00A653"/>
</g>
</svg>
