<svg width="19" height="18" viewBox="0 0 19 18" fill="none" xmlns="http://www.w3.org/2000/svg">
<g id="time">
<path id="Vector" fill-rule="evenodd" clip-rule="evenodd" d="M9.5791 16.5C13.7213 16.5 17.0791 13.1422 17.0791 9C17.0791 4.85775 13.7213 1.5 9.5791 1.5C5.43685 1.5 2.0791 4.85775 2.0791 9C2.0791 13.1422 5.43685 16.5 9.5791 16.5ZM10.3291 5.25C10.3291 5.05109 10.2501 4.86032 10.1094 4.71967C9.96878 4.57902 9.77801 4.5 9.5791 4.5C9.38019 4.5 9.18942 4.57902 9.04877 4.71967C8.90812 4.86032 8.8291 5.05109 8.8291 5.25V8.6895C8.82919 9.08729 8.98728 9.46876 9.2686 9.75L11.2989 11.7802C11.4403 11.9169 11.6298 11.9925 11.8264 11.9908C12.023 11.989 12.2112 11.9102 12.3502 11.7711C12.4893 11.6321 12.5681 11.4439 12.5699 11.2473C12.5716 11.0507 12.496 10.8612 12.3594 10.7197L10.3291 8.6895V5.25Z" fill="#BBBEC7"/>
</g>
</svg>
