<svg width="16" height="17" viewBox="0 0 16 17" fill="none" xmlns="http://www.w3.org/2000/svg">
<path id="Vector" d="M12.711 6.79726V5.77453C12.711 3.56544 12.2235 0.636353 8.00098 0.636353C3.77848 0.636353 3.29098 3.56544 3.29098 5.77453V6.79726C1.19098 7.08362 0.500977 8.24544 0.500977 11.1009V12.6227C0.500977 15.9773 1.43848 17 4.51348 17H11.4885C14.5635 17 15.501 15.9773 15.501 12.6227V11.1009C15.501 8.24544 14.811 7.08362 12.711 6.79726ZM8.00098 14.3327C6.74848 14.3327 5.73598 13.22 5.73598 11.8618C5.73598 10.4954 6.75598 9.3909 8.00098 9.3909C9.24598 9.3909 10.266 10.5036 10.266 11.8618C10.266 13.2282 9.25348 14.3327 8.00098 14.3327ZM4.51348 6.72362C4.45348 6.72362 4.40098 6.72362 4.34098 6.72362V5.77453C4.34098 3.37726 4.96348 1.78181 8.00098 1.78181C11.0385 1.78181 11.661 3.37726 11.661 5.77453V6.73181C11.601 6.73181 11.5485 6.73181 11.4885 6.73181H4.51348V6.72362Z" fill="#BBBEC7"/>
</svg>
